<svg xmlns="http://www.w3.org/2000/svg" viewBox="0 0 920 280" role="img" aria-labelledby="title desc">
  <title id="title">ohm</title>
  <desc id="desc">ohm wordmark with the open kernel loom emblem.</desc>
  <g transform="translate(12 12)" fill="none" stroke="#090a0a" stroke-width="12" stroke-linecap="square" stroke-linejoin="miter">
    <path d="M48 24v32h160V24M96 24v32M160 24v32"/>
    <path d="M128 56v32M128 120v16M128 168v44"/>
    <path d="M24 88h32v32H24M56 104h48m0 0h16V88h16v32h16v-16h48"/>
    <path d="M232 88h-32v32h32"/>
    <path d="M24 136h32v32H24M56 152h48m0 0h16v16h16v-32h16v16h48"/>
    <path d="M232 136h-32v32h32"/>
  </g>
  <path transform="translate(12 12)" fill="#090a0a" d="m128 212 18 18-18 18-18-18z"/>
  <text x="326" y="182" fill="#090a0a" font-family="ui-monospace, SFMono-Regular, Menlo, Consolas, Liberation Mono, monospace" font-size="128" font-weight="500" letter-spacing="-7">ohm</text>
</svg>
